<svg version="1.1" id="Layer_1" xmlns="http://www.w3.org/2000/svg" xmlns:xlink="http://www.w3.org/1999/xlink" x="0px" y="0px"
	 width="100%" viewBox="0 0 496 496" enable-background="new 0 0 496 496" xml:space="preserve">
<path fill="#000000" opacity="1.000000" stroke="none" 
	d="
M159.218658,347.237701 
	C165.941605,327.728058 172.730682,308.598145 179.657471,289.518280 
	C196.186417,243.989090 212.780350,198.483505 229.347809,152.968292 
	C229.860031,151.561066 230.553604,150.189758 230.845139,148.737961 
	C231.713318,144.414795 234.458542,143.596390 238.490463,143.615433 
	C268.145721,143.755524 297.801941,143.693329 327.457855,143.694977 
	C342.952240,143.695847 358.446777,143.733032 373.940887,143.668533 
	C377.167236,143.655106 379.351135,144.111969 379.377838,148.196152 
	C379.402832,152.018906 378.280273,153.464340 374.246826,153.425873 
	C355.588623,153.247849 336.927795,153.358429 318.267883,153.346695 
	C309.238373,153.341019 310.973541,153.239120 310.977936,160.898865 
	C311.012360,221.210175 310.959015,281.521606 311.057709,341.832764 
	C311.065460,346.571777 309.925415,348.517426 304.635101,348.484406 
	C267.316742,348.251312 229.996078,348.293457 192.676758,348.423431 
	C188.308319,348.438690 186.699005,347.082001 186.967499,342.680664 
	C187.231171,338.358124 190.004898,338.680328 192.905121,338.681641 
	C224.227097,338.695892 255.549072,338.708252 286.870972,338.663849 
	C288.950836,338.660919 291.186218,339.303284 293.708435,337.481750 
	C273.711914,282.508057 253.678146,227.432022 233.154755,171.009903 
	C228.778763,182.975601 224.892410,193.542328 221.048218,204.124374 
	C204.169983,250.585571 187.305649,297.051819 170.431152,343.514404 
	C168.478287,348.891479 166.978699,349.438568 159.218658,347.237701 
M300.823883,310.496704 
	C300.827423,260.170135 300.776245,209.843399 300.923706,159.517242 
	C300.937592,154.773117 299.614746,153.177902 294.734283,153.252136 
	C277.407318,153.515686 260.073822,153.333740 242.742889,153.375626 
	C241.167877,153.379425 239.402313,152.807129 237.551712,154.728638 
	C258.297546,211.720886 279.130066,268.951294 299.962616,326.181702 
	C300.248901,326.107910 300.535217,326.034149 300.821533,325.960358 
	C300.821533,321.138336 300.821533,316.316284 300.823883,310.496704 
z"/>
</svg>